# xmcd
#
# Track frame offsets: 
#        150
#        16325
#        25255
#        38510
#        55020
#        68250
#        84930
#        99465
#        111155
#        136557
#        152542
#        171750
#
# Disc length: 2453 seconds
#
# Revision: 0
# Processed by: cddbd v1.5.1PL0 Copyright (c) Steve Scherf et al.
# Submitted via: ExactAudioCopy v0.95a2
#
DISCID=7a09930c
DTITLE=J. W. Warren - Life Ain't Worth Livin'
DYEAR=2005
DGENRE=Blues
TTITLE0=Hoboing Into Hollywood
TTITLE1=Sundown Blues
TTITLE2=Trucking Little Woman
TTITLE3=Little Louise
TTITLE4=When Your Gal Packs Up And Leaves
TTITLE5=My Mind Gets To Wandering
TTITLE6=Careless Love
TTITLE7=Rabbit On A Log
TTITLE8=The Escape Of Corrina
TTITLE9=Hwy 51
TTITLE10=A Long Old Lane
TTITLE11=You're Gonna Miss Me
EXTD=
EXTT0=
EXTT1=
EXTT2=
EXTT3=
EXTT4=
EXTT5=
EXTT6=
EXTT7=
EXTT8=
EXTT9=
EXTT10=
EXTT11=
PLAYORDER=
